<?xml version="1.0" encoding="utf-8"?>
<!-- Generator: Adobe Illustrator 19.0.0, SVG Export Plug-In . SVG Version: 6.00 Build 0)  -->
<svg version="1.1" id="Capa_1" xmlns="http://www.w3.org/2000/svg" xmlns:xlink="http://www.w3.org/1999/xlink" x="0px" y="0px"
	 viewBox="0 16.2 98 68" style="enable-background:new 0 16.2 98 68;" xml:space="preserve">
<style type="text/css">
	.st0{fill:#FFFFFF;}
</style>
<path class="st0" d="M60,74.2H50L50,45c0-0.9-0.5-1.8-1.4-2.7c-0.9-0.9-1.7-1.4-2.3-1.4c-0.6,0-1.7,0.6-3.1,1.8l0,31.5h-10l0-27.2
	c0-2.6-0.3-4.6-0.9-6c-0.6-1.4-1.6-2.7-2.9-3.7l8.4-5.9c1.7,1.4,2.9,2.9,3.7,4.3c3.3-2.9,5.6-4.4,6.8-4.4c0.8,0,2,0.6,3.7,1.7
	c1.7,1.1,3.3,2.5,4.7,4c4-3.8,6.8-5.7,8.3-5.7c1.5,0,3.9,1.4,7,4.2c3.1,2.8,4.7,5.6,4.7,8.3v14.7c0,2.6,0.3,4.6,0.9,6
	c0.6,1.4,1.6,2.7,2.9,3.7l-8.4,5.9c-3.7-2.9-5.5-7-5.5-12.3V45c0-0.9-0.5-1.8-1.4-2.7c-0.9-0.9-1.7-1.4-2.2-1.4s-1.7,0.6-3.2,1.9
	c0.1,0.5,0.2,0.9,0.2,1.1L60,74.2z"/>
<path class="st0" d="M84.4,16.2h10v42.4c0,2.6,0.3,4.6,0.9,6c0.6,1.4,1.6,2.7,2.9,3.7l-8.4,5.9c-3.7-2.9-5.5-7-5.5-12.3V16.2z"/>
<path class="st0" d="M29.1,66c-0.1-0.2-0.1-0.4-0.2-0.6c0-0.3,0-0.5-0.1-0.8c-0.2-2.1-0.3-3.8-0.5-5c-0.2-1.3-0.3-2.3-0.5-2.7
	c-0.6-1.3-2.1-3-4.6-5.4c1.8-1.7,3.1-3.3,3.9-4.5c0.4-0.5,0.7-2.2,0.7-4.9c0-1.4-0.3-2.6-0.9-3.4c-0.6-0.9-2.1-2.4-4.6-4.5
	c-1-0.9-1.9-1.5-2.7-2c-1.1-0.7-2.1-1.2-2.8-1.2c-1.2,0-3.4,1.1-6.6,3.3c-0.7-1.4-1.7-2.5-3-3.3L0,36c1.5,1.9,2.5,3.4,2.9,4.7
	c0.5,1.3,0.7,3.5,0.7,6.8v26.5H12V56.4h5.4c0.5,0.6,1,1.3,1.4,2.1c0.3,0.7,0.7,2.7,1,5.9c0,0.6,0.1,1.2,0.2,1.7
	c0.5,3.3,1.9,5.9,4.3,7.9c0.1,0.1,0.1,0.1,0.2,0.2l0.3-0.2l4.6-3.2l2.3-1.6C30.5,68.3,29.6,67.2,29.1,66z M18.3,45.7
	c-0.3,0.6-0.8,1.4-1.7,2.3c-0.9,0.9-1.6,1.3-2.2,1.3H12v-4.7c0-1.7-0.1-3.3-0.2-4.8c1.7-0.5,3-0.8,4.1-0.8c0.3,0,0.7,0.3,1.2,1
	c0.5,0.7,0.9,1.3,1.1,1.8c0.3,0.5,0.4,1.2,0.4,1.8C18.7,44.4,18.5,45.1,18.3,45.7z"/>
<title>Combined Shape</title>
<desc>Created with Sketch.</desc>
</svg>
